<mxfile host="app.diagrams.net" modified="2022-07-19T07:12:34.987Z" agent="5.0 (Macintosh; Intel Mac OS X 10_15_7) AppleWebKit/537.36 (KHTML, like Gecko) Chrome/103.0.0.0 Safari/537.36" etag="TMZyfUhAMD-Txw_xAwUa" version="20.1.1" type="github">
  <diagram id="vSKtcLWnm_u5Lwe0k3ko" name="第 1 页">
    <mxGraphModel dx="2121" dy="1382" grid="1" gridSize="10" guides="1" tooltips="1" connect="1" arrows="1" fold="1" page="1" pageScale="1" pageWidth="1169" pageHeight="827" math="0" shadow="0">
      <root>
        <mxCell id="0" />
        <mxCell id="1" parent="0" />
        <mxCell id="kgDC5LhOR1uAWl1KcwET-2" value="&lt;font style=&quot;&quot; face=&quot;Times New Roman&quot;&gt;&lt;font style=&quot;font-size: 19px;&quot;&gt;conv_3x3&lt;/font&gt;&lt;br&gt;&lt;/font&gt;" style="rounded=0;whiteSpace=wrap;html=1;" vertex="1" parent="1">
          <mxGeometry x="-869.9" y="-450" width="100" height="40" as="geometry" />
        </mxCell>
        <mxCell id="kgDC5LhOR1uAWl1KcwET-3" value="" style="endArrow=classic;html=1;entryX=0;entryY=0.5;entryDx=0;entryDy=0;endSize=6;rounded=0;" edge="1" parent="1" target="kgDC5LhOR1uAWl1KcwET-2">
          <mxGeometry width="50" height="50" relative="1" as="geometry">
            <mxPoint x="-890" y="-430" as="sourcePoint" />
            <mxPoint x="-879.6" y="-430.5" as="targetPoint" />
            <Array as="points">
              <mxPoint x="-889.6" y="-430.5" />
              <mxPoint x="-910" y="-430" />
            </Array>
          </mxGeometry>
        </mxCell>
        <mxCell id="kgDC5LhOR1uAWl1KcwET-4" value="" style="endArrow=classic;html=1;rounded=0;entryX=0.5;entryY=0;entryDx=0;entryDy=0;exitX=0.5;exitY=1;exitDx=0;exitDy=0;" edge="1" parent="1" source="kgDC5LhOR1uAWl1KcwET-2" target="kgDC5LhOR1uAWl1KcwET-7">
          <mxGeometry width="50" height="50" relative="1" as="geometry">
            <mxPoint x="-820.1" y="-400" as="sourcePoint" />
            <mxPoint x="-820" y="-350" as="targetPoint" />
          </mxGeometry>
        </mxCell>
        <mxCell id="kgDC5LhOR1uAWl1KcwET-5" value="input" style="text;html=1;align=center;verticalAlign=middle;resizable=0;points=[];autosize=1;strokeColor=none;fillColor=none;fontSize=20;fontFamily=Times New Roman;" vertex="1" parent="1">
          <mxGeometry x="-970" y="-450" width="60" height="40" as="geometry" />
        </mxCell>
        <mxCell id="kgDC5LhOR1uAWl1KcwET-6" value="" style="endArrow=classic;html=1;rounded=0;fontFamily=Times New Roman;fontSize=20;exitX=1;exitY=0.5;exitDx=0;exitDy=0;entryX=0.5;entryY=0;entryDx=0;entryDy=0;" edge="1" parent="1" source="kgDC5LhOR1uAWl1KcwET-2" target="kgDC5LhOR1uAWl1KcwET-15">
          <mxGeometry width="50" height="50" relative="1" as="geometry">
            <mxPoint x="-759.6" y="-430.5" as="sourcePoint" />
            <mxPoint x="-730" y="-325" as="targetPoint" />
            <Array as="points">
              <mxPoint x="-717" y="-430" />
            </Array>
          </mxGeometry>
        </mxCell>
        <mxCell id="kgDC5LhOR1uAWl1KcwET-7" value="&lt;font style=&quot;font-size: 18px;&quot;&gt;avg_pool&lt;/font&gt;" style="rounded=0;whiteSpace=wrap;html=1;fontFamily=Times New Roman;fontSize=20;" vertex="1" parent="1">
          <mxGeometry x="-864.3" y="-362" width="90" height="40" as="geometry" />
        </mxCell>
        <mxCell id="kgDC5LhOR1uAWl1KcwET-8" value="&lt;font style=&quot;font-size: 18px;&quot;&gt;upsample&lt;/font&gt;" style="rounded=0;whiteSpace=wrap;html=1;fontFamily=Times New Roman;fontSize=20;" vertex="1" parent="1">
          <mxGeometry x="-864" y="-299" width="90" height="40" as="geometry" />
        </mxCell>
        <mxCell id="kgDC5LhOR1uAWl1KcwET-9" value="" style="endArrow=classic;html=1;rounded=0;entryX=0.5;entryY=0;entryDx=0;entryDy=0;" edge="1" parent="1" target="kgDC5LhOR1uAWl1KcwET-8">
          <mxGeometry width="50" height="50" relative="1" as="geometry">
            <mxPoint x="-819" y="-320" as="sourcePoint" />
            <mxPoint x="-819.4900000000001" y="-295" as="targetPoint" />
          </mxGeometry>
        </mxCell>
        <mxCell id="kgDC5LhOR1uAWl1KcwET-11" value="" style="endArrow=classic;html=1;rounded=0;fontFamily=Times New Roman;fontSize=20;entryX=0;entryY=0.75;entryDx=0;entryDy=0;exitX=1;exitY=0.5;exitDx=0;exitDy=0;" edge="1" parent="1" source="kgDC5LhOR1uAWl1KcwET-8" target="kgDC5LhOR1uAWl1KcwET-15">
          <mxGeometry width="50" height="50" relative="1" as="geometry">
            <mxPoint x="-770" y="-279" as="sourcePoint" />
            <mxPoint x="-719.9" y="-329" as="targetPoint" />
          </mxGeometry>
        </mxCell>
        <mxCell id="kgDC5LhOR1uAWl1KcwET-15" value="&lt;div style=&quot;&quot;&gt;&lt;font style=&quot;font-size: 37px;&quot;&gt;-&lt;/font&gt;&lt;/div&gt;" style="rounded=0;whiteSpace=wrap;html=1;fontFamily=Times New Roman;fontSize=21;fillColor=none;gradientColor=none;align=center;strokeColor=none;" vertex="1" parent="1">
          <mxGeometry x="-737" y="-294" width="40" height="20" as="geometry" />
        </mxCell>
        <mxCell id="kgDC5LhOR1uAWl1KcwET-20" value="&lt;font style=&quot;&quot; face=&quot;Times New Roman&quot;&gt;&lt;font style=&quot;font-size: 19px;&quot;&gt;conv_3x1&lt;/font&gt;&lt;br&gt;&lt;/font&gt;" style="rounded=0;whiteSpace=wrap;html=1;" vertex="1" parent="1">
          <mxGeometry x="-655.5" y="-339" width="103" height="30" as="geometry" />
        </mxCell>
        <mxCell id="kgDC5LhOR1uAWl1KcwET-21" value="&lt;font style=&quot;&quot; face=&quot;Times New Roman&quot;&gt;&lt;font style=&quot;font-size: 19px;&quot;&gt;conv_1x3&lt;/font&gt;&lt;br&gt;&lt;/font&gt;" style="rounded=0;whiteSpace=wrap;html=1;" vertex="1" parent="1">
          <mxGeometry x="-536.5" y="-339" width="103" height="30" as="geometry" />
        </mxCell>
        <mxCell id="kgDC5LhOR1uAWl1KcwET-25" value="" style="endArrow=classic;html=1;rounded=0;fontFamily=Times New Roman;fontSize=37;endSize=6;strokeColor=#000000;entryX=0;entryY=0.5;entryDx=0;entryDy=0;" edge="1" parent="1" target="kgDC5LhOR1uAWl1KcwET-21">
          <mxGeometry width="50" height="50" relative="1" as="geometry">
            <mxPoint x="-552.5" y="-324.28999999999996" as="sourcePoint" />
            <mxPoint x="-542.5" y="-324.28999999999996" as="targetPoint" />
          </mxGeometry>
        </mxCell>
        <mxCell id="kgDC5LhOR1uAWl1KcwET-26" value="" style="endArrow=classic;html=1;rounded=0;fontFamily=Times New Roman;fontSize=37;endSize=6;strokeColor=#000000;entryX=0;entryY=0.5;entryDx=0;entryDy=0;" edge="1" parent="1" target="kgDC5LhOR1uAWl1KcwET-27">
          <mxGeometry width="50" height="50" relative="1" as="geometry">
            <mxPoint x="-697" y="-280" as="sourcePoint" />
            <mxPoint x="-600" y="-279" as="targetPoint" />
          </mxGeometry>
        </mxCell>
        <mxCell id="kgDC5LhOR1uAWl1KcwET-27" value="&lt;font style=&quot;&quot; face=&quot;Times New Roman&quot;&gt;&lt;font style=&quot;font-size: 19px;&quot;&gt;conv_3x3&lt;/font&gt;&lt;br&gt;&lt;/font&gt;" style="rounded=0;whiteSpace=wrap;html=1;" vertex="1" parent="1">
          <mxGeometry x="-599" y="-295" width="103" height="30" as="geometry" />
        </mxCell>
        <mxCell id="kgDC5LhOR1uAWl1KcwET-28" value="" style="endArrow=classic;html=1;rounded=0;fontFamily=Times New Roman;fontSize=37;endSize=6;strokeColor=#000000;entryX=0;entryY=0.5;entryDx=0;entryDy=0;" edge="1" parent="1" target="kgDC5LhOR1uAWl1KcwET-20">
          <mxGeometry width="50" height="50" relative="1" as="geometry">
            <mxPoint x="-680" y="-280" as="sourcePoint" />
            <mxPoint x="-679.3" y="-322" as="targetPoint" />
            <Array as="points">
              <mxPoint x="-680" y="-324" />
            </Array>
          </mxGeometry>
        </mxCell>
        <mxCell id="kgDC5LhOR1uAWl1KcwET-32" value="&lt;div style=&quot;&quot;&gt;&lt;font style=&quot;font-size: 20px;&quot;&gt;&lt;b&gt;+&lt;/b&gt;&lt;/font&gt;&lt;/div&gt;" style="rounded=0;whiteSpace=wrap;html=1;fontFamily=Times New Roman;fontSize=21;fillColor=none;gradientColor=none;align=center;strokeColor=none;" vertex="1" parent="1">
          <mxGeometry x="-420" y="-289" width="40" height="20" as="geometry" />
        </mxCell>
        <mxCell id="kgDC5LhOR1uAWl1KcwET-33" value="" style="endArrow=classic;html=1;rounded=0;fontFamily=Times New Roman;fontSize=20;endSize=6;strokeColor=#000000;entryX=0.5;entryY=1;entryDx=0;entryDy=0;" edge="1" parent="1">
          <mxGeometry width="50" height="50" relative="1" as="geometry">
            <mxPoint x="-680" y="-280" as="sourcePoint" />
            <mxPoint x="-400" y="-269" as="targetPoint" />
            <Array as="points">
              <mxPoint x="-680" y="-240" />
              <mxPoint x="-400" y="-240" />
            </Array>
          </mxGeometry>
        </mxCell>
        <mxCell id="kgDC5LhOR1uAWl1KcwET-34" value="" style="endArrow=classic;html=1;rounded=0;fontFamily=Times New Roman;fontSize=20;endSize=6;strokeColor=#000000;entryX=0.5;entryY=0;entryDx=0;entryDy=0;" edge="1" parent="1">
          <mxGeometry width="50" height="50" relative="1" as="geometry">
            <mxPoint x="-430" y="-322" as="sourcePoint" />
            <mxPoint x="-400" y="-289" as="targetPoint" />
            <Array as="points">
              <mxPoint x="-400" y="-322" />
            </Array>
          </mxGeometry>
        </mxCell>
        <mxCell id="kgDC5LhOR1uAWl1KcwET-35" value="" style="endArrow=classic;html=1;rounded=0;fontFamily=Times New Roman;fontSize=20;endSize=6;strokeColor=#000000;exitX=1;exitY=0.5;exitDx=0;exitDy=0;entryX=0.25;entryY=0.45;entryDx=0;entryDy=0;entryPerimeter=0;" edge="1" parent="1" source="kgDC5LhOR1uAWl1KcwET-27" target="kgDC5LhOR1uAWl1KcwET-32">
          <mxGeometry width="50" height="50" relative="1" as="geometry">
            <mxPoint x="-670" y="-270" as="sourcePoint" />
            <mxPoint x="-620" y="-320" as="targetPoint" />
          </mxGeometry>
        </mxCell>
        <mxCell id="kgDC5LhOR1uAWl1KcwET-36" value="" style="endArrow=classic;html=1;rounded=0;fontFamily=Times New Roman;fontSize=20;endSize=6;strokeColor=#000000;" edge="1" parent="1">
          <mxGeometry width="50" height="50" relative="1" as="geometry">
            <mxPoint x="-890" y="-430" as="sourcePoint" />
            <mxPoint x="-370" y="-280" as="targetPoint" />
            <Array as="points">
              <mxPoint x="-890" y="-220" />
              <mxPoint x="-370" y="-220" />
            </Array>
          </mxGeometry>
        </mxCell>
        <mxCell id="kgDC5LhOR1uAWl1KcwET-37" value="" style="endArrow=classic;html=1;rounded=0;fontFamily=Times New Roman;fontSize=20;endSize=6;strokeColor=#000000;" edge="1" parent="1">
          <mxGeometry width="50" height="50" relative="1" as="geometry">
            <mxPoint x="-390" y="-280" as="sourcePoint" />
            <mxPoint x="-350" y="-280" as="targetPoint" />
          </mxGeometry>
        </mxCell>
        <mxCell id="kgDC5LhOR1uAWl1KcwET-38" value="" style="ellipse;whiteSpace=wrap;html=1;aspect=fixed;labelBackgroundColor=none;fontFamily=Times New Roman;fontSize=20;fillColor=none;gradientColor=none;" vertex="1" parent="1">
          <mxGeometry x="-728" y="-290" width="22" height="22" as="geometry" />
        </mxCell>
        <mxCell id="kgDC5LhOR1uAWl1KcwET-39" value="" style="ellipse;whiteSpace=wrap;html=1;aspect=fixed;labelBackgroundColor=none;fontFamily=Times New Roman;fontSize=20;fillColor=none;gradientColor=none;" vertex="1" parent="1">
          <mxGeometry x="-411" y="-290" width="22" height="22" as="geometry" />
        </mxCell>
      </root>
    </mxGraphModel>
  </diagram>
</mxfile>
